<?xml version="1.0" standalone="no"?>
<!DOCTYPE svg PUBLIC "-//W3C//DTD SVG 20010904//EN"
 "http://www.w3.org/TR/2001/REC-SVG-20010904/DTD/svg10.dtd">
<svg version="1.0" xmlns="http://www.w3.org/2000/svg"
 width="512.000000pt" height="512.000000pt" viewBox="0 0 512.000000 512.000000"
 preserveAspectRatio="xMidYMid meet">
<metadata>
Created by potrace 1.16, written by Peter Selinger 2001-2019
</metadata>
<g transform="translate(0.000000,512.000000) scale(0.100000,-0.100000)"
fill="#000000" stroke="none">
<path d="M820 5113 c-67 -13 -154 -65 -221 -132 -38 -38 -69 -76 -69 -85 0
-14 179 -16 1998 -18 l1997 -3 57 -23 c118 -48 222 -152 270 -269 l23 -58 3
-1998 c2 -1818 4 -1997 18 -1997 31 0 153 135 187 207 l32 68 3 1965 c2 2148
6 2006 -55 2116 -35 63 -114 142 -177 177 -110 61 32 57 -2095 56 -1070 -1
-1957 -4 -1971 -6z"/>
<path d="M376 4649 c-73 -12 -184 -71 -239 -126 -58 -57 -90 -108 -117 -188
-20 -57 -20 -83 -20 -2005 0 -2127 -4 -1987 57 -2096 35 -63 114 -142 177
-177 109 -61 -31 -57 2096 -57 1922 0 1948 0 2005 20 32 11 77 31 99 44 106
63 197 200 217 326 6 42 9 739 7 1980 -3 1752 -5 1919 -20 1961 -51 145 -155
251 -295 303 l-58 21 -1930 1 c-1062 1 -1952 -2 -1979 -7z m2203 -485 c413
-60 764 -236 1057 -528 355 -356 544 -811 544 -1312 0 -496 -193 -957 -547
-1310 -659 -655 -1684 -723 -2428 -161 -103 78 -274 249 -352 352 -562 744
-494 1769 161 2428 283 283 637 464 1031 527 144 23 392 25 534 4z"/>
<path d="M2175 3719 c-296 -31 -592 -167 -804 -368 -68 -66 -82 -105 -58 -164
31 -72 124 -96 185 -47 16 14 61 50 99 81 186 154 396 237 653 259 73 7 131
17 144 26 50 32 66 116 32 168 -34 54 -84 62 -251 45z"/>
<path d="M2185 3016 c-238 -55 -420 -208 -509 -424 -35 -89 -49 -163 -48 -272
3 -388 304 -689 692 -692 109 -1 183 13 273 49 190 77 337 236 404 438 23 70
27 96 27 210 0 98 -4 145 -18 190 -75 242 -240 409 -481 487 -80 25 -258 33
-340 14z m264 -499 c61 -40 94 -97 99 -168 6 -78 -16 -136 -72 -187 -71 -66
-155 -79 -241 -38 -60 28 -87 56 -114 116 -50 109 1 239 114 292 60 28 159 21
214 -15z"/>
</g>
</svg>
