<svg width="20" height="20" viewBox="0 0 20 20" fill="none" xmlns="http://www.w3.org/2000/svg">
<path d="M8.71428 7.42857L10 8.71429L11.2857 7.42857C11.9958 6.71849 13.1471 6.71849 13.8571 7.42857C14.5672 8.13865 14.5672 9.28992 13.8571 10L10 13.8571L6.14286 10C5.43278 9.28992 5.43278 8.13865 6.14286 7.42857C6.85294 6.71849 8.0042 6.71849 8.71428 7.42857Z" stroke="#ef548e"/>
<path d="M1 10C1 14.9706 5.02944 19 10 19C14.9706 19 19 14.9706 19 10C19 5.02944 14.9706 1 10 1C5.02944 1 1 5.02944 1 10Z" stroke="#ef548e"/>
</svg>
