<svg width="18" height="18" viewBox="0 0 18 18" fill="none" xmlns="http://www.w3.org/2000/svg">
<path d="M2.4 7.8C2.4 4.15492 5.35492 1.2 9 1.2C12.6451 1.2 15.6 4.15492 15.6 7.8V10.8H15C14.0059 10.8 13.2 11.6059 13.2 12.6V16.2C13.2 17.1941 14.0059 18 15 18H16.2C17.1941 18 18 17.1941 18 16.2V12.6C18 11.8163 17.4991 11.1495 16.8 10.9024V7.8C16.8 3.49218 13.3078 0 9 0C4.69218 0 1.2 3.49218 1.2 7.8V10.9024C0.500885 11.1495 0 11.8163 0 12.6V16.2C0 17.1941 0.805887 18 1.8 18H3C3.99411 18 4.8 17.1941 4.8 16.2V12.6C4.8 11.6059 3.99411 10.8 3 10.8H2.4V7.8Z" fill="#8A8C99"/>
</svg>
