<svg width="14" height="18" viewBox="0 0 14 18" fill="none" xmlns="http://www.w3.org/2000/svg">
<path d="M3.81818 3C3.81818 1.34315 5.24273 0 7 0C8.75727 0 10.1818 1.34315 10.1818 3V7.8C10.1818 9.45685 8.75727 10.8 7 10.8C5.24273 10.8 3.81818 9.45685 3.81818 7.8V3Z" fill="#8A8C99"/>
<path d="M0 4.8V7.8C0 11.2428 2.79586 14.07 6.36364 14.3731V16.8H3.81818V18H10.1818V16.8H7.63636V14.3731C11.2041 14.07 14 11.2428 14 7.8V4.8H12.7273V7.8C12.7273 10.7823 10.1631 13.2 7 13.2C3.83691 13.2 1.27273 10.7823 1.27273 7.8V4.8H0Z" fill="#8A8C99"/>
</svg>
