<svg width="20" height="20" viewBox="0 0 20 20" fill="none" xmlns="http://www.w3.org/2000/svg">
<path fill-rule="evenodd" clip-rule="evenodd" d="M19 9.17104L10 1L1 9.17104H3.07225V19H16.9287V9.17104H19Z" fill="white"/>
<path d="M10 1L10.6722 0.259619C10.2909 -0.0865396 9.70909 -0.0865396 9.32781 0.259619L10 1ZM19 9.17104V10.171C19.4132 10.171 19.7839 9.91683 19.9328 9.53133C20.0817 9.14582 19.9781 8.70844 19.6722 8.43066L19 9.17104ZM1 9.17104L0.327813 8.43066C0.0218443 8.70844 -0.0817331 9.14582 0.0671599 9.53133C0.216053 9.91683 0.586742 10.171 1 10.171L1 9.17104ZM3.07225 9.17104H4.07225C4.07225 8.61875 3.62454 8.17104 3.07225 8.17104V9.17104ZM3.07225 19H2.07225C2.07225 19.5523 2.51997 20 3.07225 20V19ZM16.9287 19V20C17.4809 20 17.9287 19.5523 17.9287 19H16.9287ZM16.9287 9.17104V8.17104C16.3764 8.17104 15.9287 8.61875 15.9287 9.17104H16.9287ZM9.32781 1.74038L18.3278 9.91142L19.6722 8.43066L10.6722 0.259619L9.32781 1.74038ZM1.67219 9.91142L10.6722 1.74038L9.32781 0.259619L0.327813 8.43066L1.67219 9.91142ZM3.07225 8.17104H1V10.171H3.07225V8.17104ZM4.07225 19V9.17104H2.07225V19H4.07225ZM16.9287 18H3.07225V20H16.9287V18ZM15.9287 9.17104V19H17.9287V9.17104H15.9287ZM19 8.17104H16.9287V10.171H19V8.17104Z" fill="#8a8c99"/>
</svg>
